<mxfile host="app.diagrams.net" agent="Mozilla/5.0 (Macintosh; Intel Mac OS X 10_15_7) AppleWebKit/537.36 (KHTML, like Gecko) Chrome/127.0.0.0 Safari/537.36" version="24.7.7">
  <diagram name="Page-1" id="1B92F4ouTMk-58nSDfXd">
    <mxGraphModel dx="1388" dy="856" grid="1" gridSize="10" guides="1" tooltips="1" connect="1" arrows="1" fold="1" page="1" pageScale="1" pageWidth="850" pageHeight="1100" math="0" shadow="0">
      <root>
        <mxCell id="0" />
        <mxCell id="1" parent="0" />
        <mxCell id="jxJJfhqHwvxwkJEjlGKT-4" value="" style="rounded=0;whiteSpace=wrap;html=1;" parent="1" vertex="1">
          <mxGeometry x="220" y="20" width="460" height="710" as="geometry" />
        </mxCell>
        <mxCell id="jxJJfhqHwvxwkJEjlGKT-1" value="Order Online" style="ellipse;whiteSpace=wrap;html=1;" parent="1" vertex="1">
          <mxGeometry x="330" y="90" width="100" height="70" as="geometry" />
        </mxCell>
        <mxCell id="jxJJfhqHwvxwkJEjlGKT-2" value="Order over the phone" style="ellipse;whiteSpace=wrap;html=1;" parent="1" vertex="1">
          <mxGeometry x="425" y="135" width="100" height="70" as="geometry" />
        </mxCell>
        <mxCell id="jxJJfhqHwvxwkJEjlGKT-3" value="Ordering a meal/meals" style="ellipse;whiteSpace=wrap;html=1;" parent="1" vertex="1">
          <mxGeometry x="295" y="220" width="100" height="70" as="geometry" />
        </mxCell>
        <mxCell id="jxJJfhqHwvxwkJEjlGKT-5" value="&lt;font style=&quot;font-size: 14px;&quot;&gt;&lt;b&gt;Restaurant Business Case&lt;/b&gt;&lt;/font&gt;" style="rounded=0;whiteSpace=wrap;html=1;" parent="1" vertex="1">
          <mxGeometry x="330" y="30" width="260" height="50" as="geometry" />
        </mxCell>
        <mxCell id="jxJJfhqHwvxwkJEjlGKT-6" value="Pay Tab" style="ellipse;whiteSpace=wrap;html=1;" parent="1" vertex="1">
          <mxGeometry x="490" y="240" width="100" height="70" as="geometry" />
        </mxCell>
        <mxCell id="jxJJfhqHwvxwkJEjlGKT-7" value="Calculating Tips" style="ellipse;whiteSpace=wrap;html=1;" parent="1" vertex="1">
          <mxGeometry x="570" y="140" width="100" height="70" as="geometry" />
        </mxCell>
        <mxCell id="jxJJfhqHwvxwkJEjlGKT-8" value="Actor" style="shape=umlActor;verticalLabelPosition=bottom;verticalAlign=top;html=1;outlineConnect=0;fillColor=#0050ef;strokeColor=#001DBC;fontColor=#ffffff;" parent="1" vertex="1">
          <mxGeometry x="100" y="140" width="30" height="60" as="geometry" />
        </mxCell>
        <mxCell id="jxJJfhqHwvxwkJEjlGKT-9" value="Customer" style="text;html=1;align=center;verticalAlign=middle;resizable=0;points=[];autosize=1;strokeColor=#001DBC;fillColor=#0050ef;fontStyle=1;fontSize=13;fontColor=#ffffff;" parent="1" vertex="1">
          <mxGeometry x="75" y="100" width="80" height="30" as="geometry" />
        </mxCell>
        <mxCell id="jxJJfhqHwvxwkJEjlGKT-11" value="" style="endArrow=none;html=1;rounded=0;exitX=0.5;exitY=0.5;exitDx=0;exitDy=0;exitPerimeter=0;entryX=0.03;entryY=0.6;entryDx=0;entryDy=0;entryPerimeter=0;" parent="1" source="jxJJfhqHwvxwkJEjlGKT-8" target="jxJJfhqHwvxwkJEjlGKT-3" edge="1">
          <mxGeometry width="50" height="50" relative="1" as="geometry">
            <mxPoint x="410" y="320" as="sourcePoint" />
            <mxPoint x="460" y="270" as="targetPoint" />
          </mxGeometry>
        </mxCell>
        <mxCell id="jxJJfhqHwvxwkJEjlGKT-14" value="" style="endArrow=classic;html=1;rounded=0;exitX=0.4;exitY=0.943;exitDx=0;exitDy=0;exitPerimeter=0;dashed=1;dashPattern=8 8;" parent="1" source="jxJJfhqHwvxwkJEjlGKT-1" target="jxJJfhqHwvxwkJEjlGKT-3" edge="1">
          <mxGeometry relative="1" as="geometry">
            <mxPoint x="360" y="310" as="sourcePoint" />
            <mxPoint x="460" y="310" as="targetPoint" />
          </mxGeometry>
        </mxCell>
        <mxCell id="jxJJfhqHwvxwkJEjlGKT-15" value="Extends" style="edgeLabel;resizable=0;html=1;;align=center;verticalAlign=middle;" parent="jxJJfhqHwvxwkJEjlGKT-14" connectable="0" vertex="1">
          <mxGeometry relative="1" as="geometry" />
        </mxCell>
        <mxCell id="jxJJfhqHwvxwkJEjlGKT-16" value="" style="endArrow=classic;html=1;rounded=0;exitX=0;exitY=1;exitDx=0;exitDy=0;dashed=1;dashPattern=8 8;entryX=0.91;entryY=0.286;entryDx=0;entryDy=0;entryPerimeter=0;" parent="1" source="jxJJfhqHwvxwkJEjlGKT-2" target="jxJJfhqHwvxwkJEjlGKT-3" edge="1">
          <mxGeometry relative="1" as="geometry">
            <mxPoint x="380" y="166" as="sourcePoint" />
            <mxPoint x="364" y="231" as="targetPoint" />
          </mxGeometry>
        </mxCell>
        <mxCell id="jxJJfhqHwvxwkJEjlGKT-17" value="Extends" style="edgeLabel;resizable=0;html=1;;align=center;verticalAlign=middle;" parent="jxJJfhqHwvxwkJEjlGKT-16" connectable="0" vertex="1">
          <mxGeometry relative="1" as="geometry" />
        </mxCell>
        <mxCell id="jxJJfhqHwvxwkJEjlGKT-18" value="" style="endArrow=classic;html=1;rounded=0;dashed=1;dashPattern=8 8;exitX=0.97;exitY=0.686;exitDx=0;exitDy=0;exitPerimeter=0;" parent="1" source="jxJJfhqHwvxwkJEjlGKT-3" target="jxJJfhqHwvxwkJEjlGKT-6" edge="1">
          <mxGeometry relative="1" as="geometry">
            <mxPoint x="390" y="176" as="sourcePoint" />
            <mxPoint x="374" y="241" as="targetPoint" />
          </mxGeometry>
        </mxCell>
        <mxCell id="jxJJfhqHwvxwkJEjlGKT-19" value="Includes" style="edgeLabel;resizable=0;html=1;;align=center;verticalAlign=middle;" parent="jxJJfhqHwvxwkJEjlGKT-18" connectable="0" vertex="1">
          <mxGeometry relative="1" as="geometry" />
        </mxCell>
        <mxCell id="jxJJfhqHwvxwkJEjlGKT-21" value="" style="endArrow=classic;html=1;rounded=0;dashed=1;dashPattern=8 8;entryX=0;entryY=1;entryDx=0;entryDy=0;" parent="1" source="jxJJfhqHwvxwkJEjlGKT-6" target="jxJJfhqHwvxwkJEjlGKT-7" edge="1">
          <mxGeometry relative="1" as="geometry">
            <mxPoint x="402" y="278" as="sourcePoint" />
            <mxPoint x="500" y="283" as="targetPoint" />
          </mxGeometry>
        </mxCell>
        <mxCell id="jxJJfhqHwvxwkJEjlGKT-22" value="Includes" style="edgeLabel;resizable=0;html=1;;align=center;verticalAlign=middle;" parent="jxJJfhqHwvxwkJEjlGKT-21" connectable="0" vertex="1">
          <mxGeometry relative="1" as="geometry" />
        </mxCell>
        <mxCell id="jxJJfhqHwvxwkJEjlGKT-23" value="Actor" style="shape=umlActor;verticalLabelPosition=bottom;verticalAlign=top;html=1;outlineConnect=0;fillColor=#0050ef;fontColor=#ffffff;strokeColor=#001DBC;" parent="1" vertex="1">
          <mxGeometry x="100" y="350" width="30" height="60" as="geometry" />
        </mxCell>
        <mxCell id="jxJJfhqHwvxwkJEjlGKT-24" value="Actor" style="shape=umlActor;verticalLabelPosition=bottom;verticalAlign=top;html=1;outlineConnect=0;fillColor=#0050ef;fontColor=#ffffff;strokeColor=#001DBC;" parent="1" vertex="1">
          <mxGeometry x="100" y="590" width="30" height="60" as="geometry" />
        </mxCell>
        <mxCell id="jxJJfhqHwvxwkJEjlGKT-25" value="Employee" style="text;html=1;align=center;verticalAlign=middle;resizable=0;points=[];autosize=1;strokeColor=#001DBC;fillColor=#0050ef;fontStyle=1;fontSize=13;fontColor=#ffffff;" parent="1" vertex="1">
          <mxGeometry x="75" y="310" width="80" height="30" as="geometry" />
        </mxCell>
        <mxCell id="jxJJfhqHwvxwkJEjlGKT-26" value="Manager" style="text;html=1;align=center;verticalAlign=middle;resizable=0;points=[];autosize=1;strokeColor=#001DBC;fillColor=#0050ef;fontStyle=1;fontSize=13;fontColor=#ffffff;" parent="1" vertex="1">
          <mxGeometry x="80" y="550" width="70" height="30" as="geometry" />
        </mxCell>
        <mxCell id="jxJJfhqHwvxwkJEjlGKT-27" value="Supplier" style="text;html=1;align=center;verticalAlign=middle;resizable=0;points=[];autosize=1;strokeColor=#001DBC;fillColor=#0050ef;fontStyle=1;fontSize=13;fontColor=#ffffff;" parent="1" vertex="1">
          <mxGeometry x="725" y="470" width="70" height="30" as="geometry" />
        </mxCell>
        <mxCell id="jxJJfhqHwvxwkJEjlGKT-28" value="Actor" style="shape=umlActor;verticalLabelPosition=bottom;verticalAlign=top;html=1;outlineConnect=0;fillColor=#0050ef;fontColor=#ffffff;strokeColor=#001DBC;" parent="1" vertex="1">
          <mxGeometry x="745" y="510" width="30" height="60" as="geometry" />
        </mxCell>
        <mxCell id="jxJJfhqHwvxwkJEjlGKT-29" value="Place Order to Kitchen" style="ellipse;whiteSpace=wrap;html=1;" parent="1" vertex="1">
          <mxGeometry x="290" y="320" width="100" height="70" as="geometry" />
        </mxCell>
        <mxCell id="jxJJfhqHwvxwkJEjlGKT-30" value="" style="endArrow=none;html=1;rounded=0;exitX=0.5;exitY=0.5;exitDx=0;exitDy=0;exitPerimeter=0;entryX=0;entryY=0.5;entryDx=0;entryDy=0;" parent="1" source="jxJJfhqHwvxwkJEjlGKT-23" target="jxJJfhqHwvxwkJEjlGKT-29" edge="1">
          <mxGeometry width="50" height="50" relative="1" as="geometry">
            <mxPoint x="370" y="400" as="sourcePoint" />
            <mxPoint x="420" y="350" as="targetPoint" />
          </mxGeometry>
        </mxCell>
        <mxCell id="jxJJfhqHwvxwkJEjlGKT-31" value="" style="endArrow=none;html=1;rounded=0;exitX=0.5;exitY=0.5;exitDx=0;exitDy=0;exitPerimeter=0;entryX=0.05;entryY=0.671;entryDx=0;entryDy=0;entryPerimeter=0;" parent="1" source="jxJJfhqHwvxwkJEjlGKT-23" target="jxJJfhqHwvxwkJEjlGKT-3" edge="1">
          <mxGeometry width="50" height="50" relative="1" as="geometry">
            <mxPoint x="125" y="390" as="sourcePoint" />
            <mxPoint x="300" y="365" as="targetPoint" />
          </mxGeometry>
        </mxCell>
        <mxCell id="jxJJfhqHwvxwkJEjlGKT-32" value="Cook Food" style="ellipse;whiteSpace=wrap;html=1;" parent="1" vertex="1">
          <mxGeometry x="470" y="320" width="100" height="70" as="geometry" />
        </mxCell>
        <mxCell id="jxJJfhqHwvxwkJEjlGKT-36" value="" style="endArrow=classic;html=1;rounded=0;dashed=1;dashPattern=8 8;exitX=1;exitY=0.5;exitDx=0;exitDy=0;entryX=0.04;entryY=0.414;entryDx=0;entryDy=0;entryPerimeter=0;" parent="1" source="jxJJfhqHwvxwkJEjlGKT-29" target="jxJJfhqHwvxwkJEjlGKT-32" edge="1">
          <mxGeometry relative="1" as="geometry">
            <mxPoint x="402" y="278" as="sourcePoint" />
            <mxPoint x="500" y="283" as="targetPoint" />
          </mxGeometry>
        </mxCell>
        <mxCell id="jxJJfhqHwvxwkJEjlGKT-37" value="Includes" style="edgeLabel;resizable=0;html=1;;align=center;verticalAlign=middle;" parent="jxJJfhqHwvxwkJEjlGKT-36" connectable="0" vertex="1">
          <mxGeometry relative="1" as="geometry" />
        </mxCell>
        <mxCell id="jxJJfhqHwvxwkJEjlGKT-38" value="Cleaning Up" style="ellipse;whiteSpace=wrap;html=1;" parent="1" vertex="1">
          <mxGeometry x="290" y="400" width="100" height="70" as="geometry" />
        </mxCell>
        <mxCell id="jxJJfhqHwvxwkJEjlGKT-39" value="Handling Complaints" style="ellipse;whiteSpace=wrap;html=1;" parent="1" vertex="1">
          <mxGeometry x="280" y="480" width="100" height="70" as="geometry" />
        </mxCell>
        <mxCell id="jxJJfhqHwvxwkJEjlGKT-40" value="Refunds" style="ellipse;whiteSpace=wrap;html=1;" parent="1" vertex="1">
          <mxGeometry x="460" y="400" width="100" height="70" as="geometry" />
        </mxCell>
        <mxCell id="jxJJfhqHwvxwkJEjlGKT-41" value="Redo or Cook new food" style="ellipse;whiteSpace=wrap;html=1;" parent="1" vertex="1">
          <mxGeometry x="470" y="480" width="100" height="70" as="geometry" />
        </mxCell>
        <mxCell id="jxJJfhqHwvxwkJEjlGKT-42" value="Scheduling" style="ellipse;whiteSpace=wrap;html=1;" parent="1" vertex="1">
          <mxGeometry x="290" y="560" width="100" height="70" as="geometry" />
        </mxCell>
        <mxCell id="jxJJfhqHwvxwkJEjlGKT-43" value="Ordering Supplies" style="ellipse;whiteSpace=wrap;html=1;" parent="1" vertex="1">
          <mxGeometry x="290" y="640" width="100" height="70" as="geometry" />
        </mxCell>
        <mxCell id="jxJJfhqHwvxwkJEjlGKT-44" value="Manage Sick Leave and Vacation Hours" style="ellipse;whiteSpace=wrap;html=1;" parent="1" vertex="1">
          <mxGeometry x="470" y="560" width="100" height="70" as="geometry" />
        </mxCell>
        <mxCell id="jxJJfhqHwvxwkJEjlGKT-45" value="" style="endArrow=none;html=1;rounded=0;exitX=0.5;exitY=0.5;exitDx=0;exitDy=0;exitPerimeter=0;entryX=0;entryY=0.5;entryDx=0;entryDy=0;" parent="1" source="jxJJfhqHwvxwkJEjlGKT-23" target="jxJJfhqHwvxwkJEjlGKT-38" edge="1">
          <mxGeometry width="50" height="50" relative="1" as="geometry">
            <mxPoint x="125" y="390" as="sourcePoint" />
            <mxPoint x="300" y="365" as="targetPoint" />
          </mxGeometry>
        </mxCell>
        <mxCell id="jxJJfhqHwvxwkJEjlGKT-46" value="" style="endArrow=none;html=1;rounded=0;entryX=0.03;entryY=0.257;entryDx=0;entryDy=0;entryPerimeter=0;" parent="1" target="jxJJfhqHwvxwkJEjlGKT-39" edge="1">
          <mxGeometry width="50" height="50" relative="1" as="geometry">
            <mxPoint x="120" y="380" as="sourcePoint" />
            <mxPoint x="310" y="375" as="targetPoint" />
          </mxGeometry>
        </mxCell>
        <mxCell id="jxJJfhqHwvxwkJEjlGKT-47" value="" style="endArrow=none;html=1;rounded=0;exitX=0.5;exitY=0.5;exitDx=0;exitDy=0;exitPerimeter=0;entryX=0.01;entryY=0.6;entryDx=0;entryDy=0;entryPerimeter=0;" parent="1" source="jxJJfhqHwvxwkJEjlGKT-24" target="jxJJfhqHwvxwkJEjlGKT-39" edge="1">
          <mxGeometry width="50" height="50" relative="1" as="geometry">
            <mxPoint x="145" y="410" as="sourcePoint" />
            <mxPoint x="320" y="385" as="targetPoint" />
          </mxGeometry>
        </mxCell>
        <mxCell id="jxJJfhqHwvxwkJEjlGKT-48" value="" style="endArrow=none;html=1;rounded=0;" parent="1" target="jxJJfhqHwvxwkJEjlGKT-42" edge="1">
          <mxGeometry width="50" height="50" relative="1" as="geometry">
            <mxPoint x="115" y="620" as="sourcePoint" />
            <mxPoint x="330" y="395" as="targetPoint" />
          </mxGeometry>
        </mxCell>
        <mxCell id="jxJJfhqHwvxwkJEjlGKT-49" value="" style="endArrow=none;html=1;rounded=0;entryX=0;entryY=0.5;entryDx=0;entryDy=0;exitX=0.5;exitY=0.5;exitDx=0;exitDy=0;exitPerimeter=0;" parent="1" source="jxJJfhqHwvxwkJEjlGKT-24" target="jxJJfhqHwvxwkJEjlGKT-43" edge="1">
          <mxGeometry width="50" height="50" relative="1" as="geometry">
            <mxPoint x="125" y="630" as="sourcePoint" />
            <mxPoint x="301" y="610" as="targetPoint" />
          </mxGeometry>
        </mxCell>
        <mxCell id="jxJJfhqHwvxwkJEjlGKT-50" value="" style="endArrow=none;html=1;rounded=0;entryX=0.5;entryY=0.5;entryDx=0;entryDy=0;entryPerimeter=0;exitX=1.01;exitY=0.643;exitDx=0;exitDy=0;exitPerimeter=0;" parent="1" source="jxJJfhqHwvxwkJEjlGKT-43" target="jxJJfhqHwvxwkJEjlGKT-28" edge="1">
          <mxGeometry width="50" height="50" relative="1" as="geometry">
            <mxPoint x="135" y="640" as="sourcePoint" />
            <mxPoint x="311" y="620" as="targetPoint" />
            <Array as="points">
              <mxPoint x="590" y="650" />
            </Array>
          </mxGeometry>
        </mxCell>
        <mxCell id="jxJJfhqHwvxwkJEjlGKT-51" value="" style="endArrow=classic;html=1;rounded=0;exitX=0.04;exitY=0.6;exitDx=0;exitDy=0;dashed=1;dashPattern=8 8;entryX=1;entryY=0.5;entryDx=0;entryDy=0;exitPerimeter=0;" parent="1" source="jxJJfhqHwvxwkJEjlGKT-40" target="jxJJfhqHwvxwkJEjlGKT-39" edge="1">
          <mxGeometry relative="1" as="geometry">
            <mxPoint x="450" y="205" as="sourcePoint" />
            <mxPoint x="396" y="250" as="targetPoint" />
          </mxGeometry>
        </mxCell>
        <mxCell id="jxJJfhqHwvxwkJEjlGKT-52" value="Extends" style="edgeLabel;resizable=0;html=1;;align=center;verticalAlign=middle;" parent="jxJJfhqHwvxwkJEjlGKT-51" connectable="0" vertex="1">
          <mxGeometry relative="1" as="geometry" />
        </mxCell>
        <mxCell id="jxJJfhqHwvxwkJEjlGKT-53" value="" style="endArrow=classic;html=1;rounded=0;exitX=0;exitY=0.5;exitDx=0;exitDy=0;dashed=1;dashPattern=8 8;" parent="1" source="jxJJfhqHwvxwkJEjlGKT-41" target="jxJJfhqHwvxwkJEjlGKT-39" edge="1">
          <mxGeometry relative="1" as="geometry">
            <mxPoint x="460" y="215" as="sourcePoint" />
            <mxPoint x="406" y="260" as="targetPoint" />
          </mxGeometry>
        </mxCell>
        <mxCell id="jxJJfhqHwvxwkJEjlGKT-54" value="Extends" style="edgeLabel;resizable=0;html=1;;align=center;verticalAlign=middle;" parent="jxJJfhqHwvxwkJEjlGKT-53" connectable="0" vertex="1">
          <mxGeometry relative="1" as="geometry" />
        </mxCell>
        <mxCell id="jxJJfhqHwvxwkJEjlGKT-55" value="" style="endArrow=classic;html=1;rounded=0;dashed=1;dashPattern=8 8;exitX=1;exitY=0.5;exitDx=0;exitDy=0;entryX=0;entryY=0.5;entryDx=0;entryDy=0;" parent="1" source="jxJJfhqHwvxwkJEjlGKT-42" target="jxJJfhqHwvxwkJEjlGKT-44" edge="1">
          <mxGeometry relative="1" as="geometry">
            <mxPoint x="386" y="596" as="sourcePoint" />
            <mxPoint x="470" y="590" as="targetPoint" />
          </mxGeometry>
        </mxCell>
        <mxCell id="jxJJfhqHwvxwkJEjlGKT-56" value="Includes" style="edgeLabel;resizable=0;html=1;;align=center;verticalAlign=middle;" parent="jxJJfhqHwvxwkJEjlGKT-55" connectable="0" vertex="1">
          <mxGeometry relative="1" as="geometry" />
        </mxCell>
      </root>
    </mxGraphModel>
  </diagram>
</mxfile>
